<svg xmlns="http://www.w3.org/2000/svg" id="Camada_1" data-name="Camada 1" viewBox="0 0 989.37 331.01"><defs><style>      .cls-1 {        fill: #fff;      }      .cls-2 {        fill: #e7266f;      }    </style></defs><g><path class="cls-1" d="m5.41,43.28c0-.07,0-.14,0-.21-.16-1.98,0-37.67,37.76-37.67h102.7v15.69H43.17s-19.26-1.03-19.26,22.07v253.49H5.41V43.28Z"></path><path class="cls-1" d="m29.31,302.05H.01V43.29c-.06-2.04-.17-18.46,11.18-30.79C18.82,4.2,29.58,0,43.17,0h108.1v26.49H42.88s-5.44-.15-9.25,3.54c-2.87,2.77-4.32,7.19-4.32,13.13v258.89Zm-18.49-10.81h7.69V43.16c0-9.08,2.61-16.16,7.77-21.05,6.81-6.46,15.38-6.49,17.01-6.43h97.18v-4.88H43.17c-10.26,0-18.24,2.92-23.73,8.68-8.9,9.35-8.65,23.07-8.65,23.21.01.16.02.37.02.58v247.97Z"></path></g><rect class="cls-1" x="23.91" y="88.04" width="106.61" height="25.88"></rect><rect class="cls-1" x="402.95" y="150.78" width="27.04" height="150.92"></rect><path class="cls-1" d="m296.69,166.52c29.83,0,54.11,24.27,54.11,54.11s-24.27,54.11-54.11,54.11-54.11-24.27-54.11-54.11,24.27-54.11,54.11-54.11m0-27.01c-44.8,0-81.12,36.32-81.12,81.12s36.32,81.12,81.12,81.12,81.12-36.32,81.12-81.12-36.32-81.12-81.12-81.12h0Z"></path><path class="cls-1" d="m429.99,222.62c0-.34-.03-.67-.03-1.01,0-29.83,24.27-54.11,54.11-54.11,18.17,0,34.27,9.01,44.08,22.79l20.32-17.99c-14.83-19.34-38.15-31.82-64.4-31.82-44.8,0-81.12,36.32-81.12,81.12,0,1.62.06,3.23.16,4.83l26.89-3.82Z"></path><path class="cls-2" d="m762.47,132.43l-9.23,27.69c12.29,12.19,19.92,29.07,19.92,47.7,0,37.06-30.15,67.22-67.22,67.22s-67.22-30.15-67.22-67.22c0-18.63,7.63-35.52,19.92-47.7l-9.23-27.69c-22.89,17.19-37.7,44.56-37.7,75.39,0,52.04,42.19,94.23,94.23,94.23s94.23-42.19,94.23-94.23c0-30.83-14.81-58.21-37.7-75.4Z"></path><rect class="cls-1" x="212.86" y="75.57" width="27.04" height="226.43"></rect><rect class="cls-1" x="151.27" y="138.25" width="27.04" height="163.8"></rect><rect class="cls-1" x="565.94" y="138.3" width="27.04" height="163.8"></rect><rect class="cls-2" x="674.3" y="134.86" width="62.67" height="21.52" transform="translate(851.26 -560.01) rotate(90)"></rect><path class="cls-2" d="m902.94,127.74c-23.11,0-44.09,9.09-59.6,23.87v-11.95h-26.83v74.5s0,0,0,0,0,0,0,0v87.48h26.83v-24.92c.07.07.15.13.22.2v-61.48c0-.43-.03-.85-.03-1.28,0-32.76,26.65-59.41,59.41-59.41s57.65,24.93,59.32,56.2v2.18h.06v88.51h26.91v-82.71c.09-1.58.14-3.17.14-4.77,0-47.73-38.69-86.43-86.43-86.43Z"></path></svg>